<svg width="240" height="214" viewBox="0 0 240 214" fill="none" xmlns="http://www.w3.org/2000/svg">
<path d="M146.906 13.7513C159.094 15.9247 167.016 26.4993 164.578 37.3665L163.5 42.1314C161.016 53.2911 156.422 63.9075 150 73.5626H217.5C229.922 73.5626 240 82.5489 240 93.6251C240 101.358 235.078 108.087 227.859 111.431C232.969 115.109 236.25 120.751 236.25 127.063C236.25 136.843 228.375 144.993 218.016 146.749C220.078 149.8 221.25 153.353 221.25 157.156C221.25 166.059 214.734 173.624 205.734 176.216C206.062 177.595 206.25 179.058 206.25 180.563C206.25 191.639 196.172 200.625 183.75 200.625H138.047C129.141 200.625 120.469 198.285 113.062 193.896L95.0156 183.154C82.5 175.714 75 163.175 75 149.758V103.28C75 91.0755 81.2344 79.5814 91.875 71.9325L95.3438 69.4665C107.766 60.6056 116.25 48.1501 119.344 34.2736L120.422 29.5087C122.859 18.6415 134.719 11.5779 146.906 13.7513ZM15 80.2501H45C53.2969 80.2501 60 86.2271 60 93.6251V187.25C60 194.648 53.2969 200.625 45 200.625H15C6.70312 200.625 0 194.648 0 187.25V93.6251C0 86.2271 6.70312 80.2501 15 80.2501Z" fill="#20448F"/>
</svg>
